<svg width="48" height="48" viewBox="0 0 48 48" fill="none" xmlns="http://www.w3.org/2000/svg">
<rect width="48" height="48" rx="8" fill="#DBF0FF"/>
<path d="M22.6 17.6C22.6 17.1757 22.7686 16.7687 23.0686 16.4686C23.3687 16.1686 23.7757 16 24.2 16C24.6243 16 25.0313 16.1686 25.3314 16.4686C25.6314 16.7687 25.8 17.1757 25.8 17.6C25.8 18.0243 25.6314 18.4313 25.3314 18.7314C25.0313 19.0314 24.6243 19.2 24.2 19.2C23.7757 19.2 23.3687 19.0314 23.0686 18.7314C22.7686 18.4313 22.6 18.0243 22.6 17.6ZM21 22.4C21 21.81 21.4767 21.3333 22.0667 21.3333H24.2C24.79 21.3333 25.2667 21.81 25.2667 22.4V29.8667H26.3333C26.9233 29.8667 27.4 30.3433 27.4 30.9333C27.4 31.5233 26.9233 32 26.3333 32H22.0667C21.4767 32 21 31.5233 21 30.9333C21 30.3433 21.4767 29.8667 22.0667 29.8667H23.1333V23.4667H22.0667C21.4767 23.4667 21 22.99 21 22.4Z" fill="#006DBC"/>
</svg>
