<svg width="48" height="48" viewBox="0 0 48 48" fill="none" xmlns="http://www.w3.org/2000/svg">
<rect width="48" height="48" rx="8" fill="#FEF2DC"/>
<path fill-rule="evenodd" clip-rule="evenodd" d="M24.0661 14.75C24.7565 14.75 25.3161 15.3096 25.3161 16V26.5785C25.3161 27.2689 24.7565 27.8285 24.0661 27.8285C23.3758 27.8285 22.8161 27.2689 22.8161 26.5785V16C22.8161 15.3096 23.3758 14.75 24.0661 14.75ZM22.75 31.8678C22.75 31.1774 23.3096 30.6178 24 30.6178H24.1322C24.8226 30.6178 25.3822 31.1774 25.3822 31.8678V32C25.3822 32.6904 24.8226 33.25 24.1322 33.25H24C23.3096 33.25 22.75 32.6904 22.75 32V31.8678Z" fill="#F8AB12"/>
</svg>
