<svg width="28" height="28" viewBox="0 0 28 28" fill="none" xmlns="http://www.w3.org/2000/svg">
<rect width="28" height="28" rx="14" fill="#DBF0FF"/>
<path d="M13.0667 9.73332C13.0667 9.45043 13.179 9.17911 13.3791 8.97908C13.5791 8.77904 13.8504 8.66666 14.1333 8.66666C14.4162 8.66666 14.6875 8.77904 14.8876 8.97908C15.0876 9.17911 15.2 9.45043 15.2 9.73332C15.2 10.0162 15.0876 10.2875 14.8876 10.4876C14.6875 10.6876 14.4162 10.8 14.1333 10.8C13.8504 10.8 13.5791 10.6876 13.3791 10.4876C13.179 10.2875 13.0667 10.0162 13.0667 9.73332ZM12 12.9333C12 12.54 12.3178 12.2222 12.7111 12.2222H14.1333C14.5267 12.2222 14.8444 12.54 14.8444 12.9333V17.9111H15.5556C15.9489 17.9111 16.2667 18.2289 16.2667 18.6222C16.2667 19.0155 15.9489 19.3333 15.5556 19.3333H12.7111C12.3178 19.3333 12 19.0155 12 18.6222C12 18.2289 12.3178 17.9111 12.7111 17.9111H13.4222V13.6444H12.7111C12.3178 13.6444 12 13.3267 12 12.9333Z" fill="#006DBC"/>
</svg>
