<svg width="28" height="28" viewBox="0 0 28 28" fill="none" xmlns="http://www.w3.org/2000/svg">
<rect width="28" height="28" rx="14" fill="#FEF2DC"/>
<path fill-rule="evenodd" clip-rule="evenodd" d="M14.0439 7.83334C14.5042 7.83334 14.8772 8.20644 14.8772 8.66668V15.719C14.8772 16.1793 14.5042 16.5524 14.0439 16.5524C13.5837 16.5524 13.2106 16.1793 13.2106 15.719V8.66668C13.2106 8.20644 13.5837 7.83334 14.0439 7.83334ZM13.1665 19.2452C13.1665 18.785 13.5396 18.4119 13.9998 18.4119H14.088C14.5482 18.4119 14.9213 18.785 14.9213 19.2452V19.3333C14.9213 19.7936 14.5482 20.1667 14.088 20.1667H13.9998C13.5396 20.1667 13.1665 19.7936 13.1665 19.3333V19.2452Z" fill="#F8AB12"/>
</svg>
